<mxfile host="app.diagrams.net" agent="Mozilla/5.0 (Windows NT 10.0; Win64; x64) AppleWebKit/537.36 (KHTML, like Gecko) Chrome/132.0.0.0 Safari/537.36 OPR/117.0.0.0 (Edition std-2)" version="26.1.0">
  <diagram id="C5RBs43oDa-KdzZeNtuy" name="Page-1">
    <mxGraphModel dx="458" dy="1334" grid="1" gridSize="10" guides="1" tooltips="1" connect="1" arrows="1" fold="1" page="1" pageScale="1" pageWidth="827" pageHeight="1169" math="0" shadow="0">
      <root>
        <mxCell id="WIyWlLk6GJQsqaUBKTNV-0" />
        <mxCell id="WIyWlLk6GJQsqaUBKTNV-1" parent="WIyWlLk6GJQsqaUBKTNV-0" />
        <mxCell id="iwkEtsIxkZ4yYLu1CRrJ-8" value="" style="edgeStyle=orthogonalEdgeStyle;rounded=0;orthogonalLoop=1;jettySize=auto;html=1;" edge="1" parent="WIyWlLk6GJQsqaUBKTNV-1" source="iwkEtsIxkZ4yYLu1CRrJ-2" target="iwkEtsIxkZ4yYLu1CRrJ-7">
          <mxGeometry relative="1" as="geometry" />
        </mxCell>
        <mxCell id="iwkEtsIxkZ4yYLu1CRrJ-2" value="Inicio da calculadora de média." style="rounded=1;whiteSpace=wrap;html=1;" vertex="1" parent="WIyWlLk6GJQsqaUBKTNV-1">
          <mxGeometry x="215" y="40" width="130" height="40" as="geometry" />
        </mxCell>
        <mxCell id="iwkEtsIxkZ4yYLu1CRrJ-5" value="Fim&amp;nbsp;&lt;span style=&quot;background-color: transparent; color: light-dark(rgb(0, 0, 0), rgb(255, 255, 255));&quot;&gt;da calculadora de média.&lt;/span&gt;" style="rounded=1;whiteSpace=wrap;html=1;" vertex="1" parent="WIyWlLk6GJQsqaUBKTNV-1">
          <mxGeometry x="215" y="530" width="130" height="40" as="geometry" />
        </mxCell>
        <mxCell id="iwkEtsIxkZ4yYLu1CRrJ-14" value="" style="edgeStyle=orthogonalEdgeStyle;rounded=0;orthogonalLoop=1;jettySize=auto;html=1;entryX=0.5;entryY=0;entryDx=0;entryDy=0;" edge="1" parent="WIyWlLk6GJQsqaUBKTNV-1" source="iwkEtsIxkZ4yYLu1CRrJ-6" target="iwkEtsIxkZ4yYLu1CRrJ-10">
          <mxGeometry relative="1" as="geometry">
            <mxPoint x="450" y="490" as="targetPoint" />
          </mxGeometry>
        </mxCell>
        <mxCell id="iwkEtsIxkZ4yYLu1CRrJ-6" value="ADICIONAR&amp;nbsp;&lt;div&gt;NOTA 2&lt;/div&gt;" style="shape=parallelogram;perimeter=parallelogramPerimeter;whiteSpace=wrap;html=1;fixedSize=1;" vertex="1" parent="WIyWlLk6GJQsqaUBKTNV-1">
          <mxGeometry x="220" y="220" width="120" height="60" as="geometry" />
        </mxCell>
        <mxCell id="iwkEtsIxkZ4yYLu1CRrJ-9" value="" style="edgeStyle=orthogonalEdgeStyle;rounded=0;orthogonalLoop=1;jettySize=auto;html=1;" edge="1" parent="WIyWlLk6GJQsqaUBKTNV-1" source="iwkEtsIxkZ4yYLu1CRrJ-7" target="iwkEtsIxkZ4yYLu1CRrJ-6">
          <mxGeometry relative="1" as="geometry" />
        </mxCell>
        <mxCell id="iwkEtsIxkZ4yYLu1CRrJ-7" value="Adicionar&amp;nbsp;&lt;div&gt;NOTA1&lt;/div&gt;" style="shape=parallelogram;perimeter=parallelogramPerimeter;whiteSpace=wrap;html=1;fixedSize=1;" vertex="1" parent="WIyWlLk6GJQsqaUBKTNV-1">
          <mxGeometry x="220" y="120" width="120" height="60" as="geometry" />
        </mxCell>
        <mxCell id="iwkEtsIxkZ4yYLu1CRrJ-15" value="" style="edgeStyle=orthogonalEdgeStyle;rounded=0;orthogonalLoop=1;jettySize=auto;html=1;" edge="1" parent="WIyWlLk6GJQsqaUBKTNV-1" source="iwkEtsIxkZ4yYLu1CRrJ-10" target="iwkEtsIxkZ4yYLu1CRrJ-11">
          <mxGeometry relative="1" as="geometry" />
        </mxCell>
        <mxCell id="iwkEtsIxkZ4yYLu1CRrJ-10" value="MÉDIA = (NOTA1 + NOTA2)&amp;nbsp; / 2&amp;nbsp;" style="rounded=0;whiteSpace=wrap;html=1;" vertex="1" parent="WIyWlLk6GJQsqaUBKTNV-1">
          <mxGeometry x="217.5" y="330" width="125" height="40" as="geometry" />
        </mxCell>
        <mxCell id="iwkEtsIxkZ4yYLu1CRrJ-13" value="" style="edgeStyle=orthogonalEdgeStyle;rounded=0;orthogonalLoop=1;jettySize=auto;html=1;" edge="1" parent="WIyWlLk6GJQsqaUBKTNV-1" source="iwkEtsIxkZ4yYLu1CRrJ-11" target="iwkEtsIxkZ4yYLu1CRrJ-5">
          <mxGeometry relative="1" as="geometry" />
        </mxCell>
        <mxCell id="iwkEtsIxkZ4yYLu1CRrJ-11" value="APRESENTA A MÉDIA" style="shape=document;whiteSpace=wrap;html=1;boundedLbl=1;" vertex="1" parent="WIyWlLk6GJQsqaUBKTNV-1">
          <mxGeometry x="220" y="420" width="120" height="60" as="geometry" />
        </mxCell>
      </root>
    </mxGraphModel>
  </diagram>
</mxfile>
